<svg width="21" height="21" viewBox="0 0 21 21" fill="none" xmlns="http://www.w3.org/2000/svg">
<path d="M10.5874 0.5C16.1074 0.5 20.5874 4.98 20.5874 10.5C20.5874 16.02 16.1074 20.5 10.5874 20.5C5.0674 20.5 0.587402 16.02 0.587402 10.5C0.587402 4.98 5.0674 0.5 10.5874 0.5ZM4.6104 13.916C6.0784 16.106 8.2824 17.5 10.7474 17.5C13.2114 17.5 15.4164 16.107 16.8834 13.916C15.2191 12.3606 13.0253 11.4968 10.7474 11.5C8.46911 11.4966 6.27491 12.3604 4.6104 13.916ZM10.5874 9.5C11.3831 9.5 12.1461 9.18393 12.7087 8.62132C13.2713 8.05871 13.5874 7.29565 13.5874 6.5C13.5874 5.70435 13.2713 4.94129 12.7087 4.37868C12.1461 3.81607 11.3831 3.5 10.5874 3.5C9.79175 3.5 9.02869 3.81607 8.46608 4.37868C7.90347 4.94129 7.5874 5.70435 7.5874 6.5C7.5874 7.29565 7.90347 8.05871 8.46608 8.62132C9.02869 9.18393 9.79175 9.5 10.5874 9.5Z" fill="#FD7E14"/>
</svg>
