<svg width="19" height="19" viewBox="0 0 19 19" fill="none" xmlns="http://www.w3.org/2000/svg">
<path d="M18.8333 17.9998C18.8333 18.265 18.728 18.5194 18.5404 18.7069C18.3529 18.8944 18.0985 18.9998 17.8333 18.9998H1.83333C1.56811 18.9998 1.31376 18.8944 1.12622 18.7069C0.938685 18.5194 0.833328 18.265 0.833328 17.9998V7.48978C0.833223 7.3374 0.867945 7.187 0.934844 7.05008C1.00174 6.91317 1.09905 6.79335 1.21933 6.69978L9.21933 0.477784C9.39487 0.341229 9.61093 0.26709 9.83333 0.26709C10.0557 0.26709 10.2718 0.341229 10.4473 0.477784L18.4473 6.69978C18.5676 6.79335 18.6649 6.91317 18.7318 7.05008C18.7987 7.187 18.8334 7.3374 18.8333 7.48978V17.9998ZM8.83333 10.9998V16.9998H10.8333V10.9998H8.83333Z" fill="#FD7E14"/>
</svg>
