<svg width="25" height="25" viewBox="0 0 25 25" fill="none" xmlns="http://www.w3.org/2000/svg">
<path d="M5.88732 4.52969C7.70188 2.95735 10.0233 2.09334 12.4243 2.09669C17.9473 2.09669 22.4243 6.57369 22.4243 12.0967C22.4243 14.2327 21.7543 16.2127 20.6143 17.8367L17.4243 12.0967H20.4243C20.4244 10.5283 19.9636 8.99449 19.099 7.68595C18.2344 6.3774 17.0042 5.35185 15.5615 4.73681C14.1187 4.12178 12.527 3.94439 10.9843 4.22671C9.44151 4.50902 8.01577 5.23859 6.88432 6.32469L5.88732 4.52969ZM18.9613 19.6637C17.1468 21.236 14.8253 22.1 12.4243 22.0967C6.90132 22.0967 2.42432 17.6197 2.42432 12.0967C2.42432 9.96069 3.09432 7.98069 4.23432 6.35669L7.42432 12.0967H4.42432C4.42419 13.6651 4.88507 15.1989 5.74965 16.5074C6.61424 17.816 7.84438 18.8415 9.28714 19.4566C10.7299 20.0716 12.3216 20.249 13.8644 19.9667C15.4071 19.6844 16.8329 18.9548 17.9643 17.8687L18.9613 19.6637Z" fill="#09121F"/>
</svg>
