<svg width="17" height="17" viewBox="0 0 17 17" fill="none" xmlns="http://www.w3.org/2000/svg">
<path d="M16.9512 6.9791L13.0209 14.0891C12.4978 14.8743 11.7535 15.4834 10.8856 15.8404C8.15044 16.9682 5.50947 15.4256 4.86144 13.0071C4.56281 11.8926 3.97609 10.8767 3.16042 10.0609C0.363189 7.3078 0.526068 7.4695 0.493341 7.43314C0.663043 7.0674 1.03312 6.82224 1.4538 6.82489C1.69006 6.82632 1.84305 6.89301 2.02443 6.99773C3.58642 8.51464 5.16287 10.1017 5.1597 10.1026C5.4318 10.0297 5.5607 9.7185 5.41984 9.47454C2.38892 4.22493 2.55458 4.55728 2.49954 4.31038C2.41256 3.95089 2.5194 3.51461 2.80672 3.22466C2.92713 3.10246 3.07389 3.01618 3.08686 3.01257C3.50456 3.003 3.9143 3.21623 4.13807 3.6034C4.43644 4.12023 6.80861 8.2292 7.13114 8.78787C5.21177 1.6247 5.36006 2.2087 5.34534 2.05209C5.33019 1.87236 5.35903 1.69167 5.41073 1.55377C5.47055 1.38416 5.57463 1.2443 5.57783 1.24344C6.1921 0.438822 7.41688 0.717551 7.66589 1.64689L9.46802 8.37252C9.58909 1.41488 9.58084 1.78139 9.58608 1.73218C9.65004 0.888956 10.6103 0.342428 11.4011 0.837478C11.452 0.871207 11.4315 0.250077 11.4643 8.71625L11.8258 10.0655C11.9298 10.4537 12.4635 10.7124 12.9117 10.3835C13.2128 10.1625 13.3286 9.84116 13.5064 9.47373C14.3064 7.82077 14.2101 8.01577 14.2679 7.90948C14.5181 7.49244 14.8904 7.12051 15.364 6.86853C15.5635 6.76289 15.8881 6.62978 16.1022 6.60611C16.393 6.5743 16.6684 6.68139 16.8594 6.87245C16.9117 6.92319 16.9489 6.97634 16.9512 6.9791Z" fill="#FFE4CC"/>
</svg>
