<svg width="14" height="14" viewBox="0 0 14 14" fill="none" xmlns="http://www.w3.org/2000/svg">
<path d="M6.99992 6.3335C7.88397 6.3335 8.73182 6.68469 9.35694 7.30981C9.98206 7.93493 10.3333 8.78277 10.3333 9.66683V13.6668H3.66659V9.66683C3.66659 8.78277 4.01777 7.93493 4.6429 7.30981C5.26802 6.68469 6.11586 6.3335 6.99992 6.3335ZM2.52525 8.3375C2.41916 8.69535 2.35648 9.06467 2.33859 9.4375L2.33325 9.66683V13.6668H0.333252V10.6668C0.333121 10.0919 0.545271 9.53712 0.929008 9.10897C1.31275 8.68082 1.84105 8.40942 2.41259 8.34683L2.52592 8.3375H2.52525ZM11.4746 8.3375C12.0679 8.37366 12.625 8.6348 13.0323 9.06765C13.4397 9.50051 13.6665 10.0725 13.6666 10.6668V13.6668H11.6666V9.66683C11.6666 9.20483 11.5999 8.75883 11.4746 8.3375ZM2.66659 4.3335C3.10861 4.3335 3.53254 4.50909 3.8451 4.82165C4.15766 5.13421 4.33325 5.55814 4.33325 6.00016C4.33325 6.44219 4.15766 6.86611 3.8451 7.17867C3.53254 7.49123 3.10861 7.66683 2.66659 7.66683C2.22456 7.66683 1.80063 7.49123 1.48807 7.17867C1.17551 6.86611 0.999919 6.44219 0.999919 6.00016C0.999919 5.55814 1.17551 5.13421 1.48807 4.82165C1.80063 4.50909 2.22456 4.3335 2.66659 4.3335V4.3335ZM11.3333 4.3335C11.7753 4.3335 12.1992 4.50909 12.5118 4.82165C12.8243 5.13421 12.9999 5.55814 12.9999 6.00016C12.9999 6.44219 12.8243 6.86611 12.5118 7.17867C12.1992 7.49123 11.7753 7.66683 11.3333 7.66683C10.8912 7.66683 10.4673 7.49123 10.1547 7.17867C9.84218 6.86611 9.66659 6.44219 9.66659 6.00016C9.66659 5.55814 9.84218 5.13421 10.1547 4.82165C10.4673 4.50909 10.8912 4.3335 11.3333 4.3335V4.3335ZM6.99992 0.333496C7.70716 0.333496 8.38544 0.614448 8.88554 1.11454C9.38563 1.61464 9.66659 2.29292 9.66659 3.00016C9.66659 3.70741 9.38563 4.38568 8.88554 4.88578C8.38544 5.38588 7.70716 5.66683 6.99992 5.66683C6.29267 5.66683 5.6144 5.38588 5.1143 4.88578C4.6142 4.38568 4.33325 3.70741 4.33325 3.00016C4.33325 2.29292 4.6142 1.61464 5.1143 1.11454C5.6144 0.614448 6.29267 0.333496 6.99992 0.333496V0.333496Z" fill="#FD7E14"/>
</svg>
