<svg width="99" height="30" viewBox="0 0 99 30" fill="none" xmlns="http://www.w3.org/2000/svg">
<path d="M12.2366 20.7921C11.6693 21.2389 10.9039 21.4906 10.1097 21.4906C8.6059 21.4906 7.75592 20.5971 7.75592 19.0052V10.9943H7.75976V8.78709H7.75592V2.15233H5.03291V8.78709H5.0156V10.9924H5.03291V19.1169C5.03291 22.1039 6.76363 23.7508 9.79818 23.7508C11.0174 23.7508 12.2654 23.4157 13.0885 22.7172L12.2366 20.7921Z" fill="#FF931E"/>
<path d="M23.7323 8.64888V11.2441C23.5054 11.2157 23.3073 11.2157 23.1093 11.2157C20.1882 11.2157 18.3728 12.9743 18.3728 16.2131V23.5823H15.6498V8.78707H18.2594V11.2725C19.2228 9.54235 21.0939 8.64888 23.7323 8.64888Z" fill="#FF931E"/>
<path d="M26.7748 8.78707V23.5842H29.4978V8.78707H26.7748Z" fill="#FF931E"/>
<path d="M29.9802 5.70515C29.9802 6.7103 29.2149 7.49209 28.136 7.49209C27.0861 7.49209 26.2919 6.7387 26.2919 5.76194C26.2919 4.78518 27.0861 4.0034 28.136 4.0034C29.186 4.0034 29.9802 4.7549 29.9802 5.70515Z" fill="#FF931E"/>
<path d="M48.1126 16.1865C48.1126 20.7371 44.9089 23.7526 40.5128 23.7526C38.386 23.7526 36.5148 22.9424 35.2668 21.3524V29.0017H32.5438V8.78701H35.1533V11.1324C36.3725 9.4855 38.3013 8.64693 40.5128 8.64693C44.9089 8.64882 48.1126 11.6624 48.1126 16.1865ZM45.3627 16.1865C45.3627 13.0594 43.1781 10.9942 40.2859 10.9942C37.4206 10.9942 35.238 13.0594 35.238 16.1865C35.238 19.3402 37.4225 21.4072 40.2859 21.4072C43.1781 21.4054 45.3627 19.3402 45.3627 16.1865Z" fill="#FF931E"/>
<path d="M66.2449 16.1865C66.2449 20.7371 63.0411 23.7526 58.6451 23.7526C56.5182 23.7526 54.6471 22.9424 53.399 21.3524V29.0017H50.676V8.78701H53.2856V11.1324C54.5048 9.4855 56.4336 8.64693 58.6451 8.64693C63.0392 8.64882 66.2449 11.6624 66.2449 16.1865ZM63.493 16.1865C63.493 13.0594 61.3085 10.9942 58.4162 10.9942C55.5509 10.9942 53.3683 13.0594 53.3683 16.1865C53.3683 19.3402 55.5528 21.4072 58.4162 21.4072C61.3104 21.4054 63.493 19.3402 63.493 16.1865Z" fill="#FF931E"/>
<path d="M68.8063 2.86961H71.5293V23.5841H68.8063V2.86961Z" fill="#FF931E"/>
<path d="M88.356 15.0697V23.5841H85.6329V15.3763C85.6329 12.4726 84.158 11.0491 81.5773 11.0491C78.685 11.0491 76.812 12.7527 76.812 15.9631V23.5841H74.089V8.78701H76.6985V11.0207C77.8043 9.5139 79.7331 8.64693 82.1157 8.64693C85.7752 8.64882 88.356 10.714 88.356 15.0697Z" fill="#FF931E"/>
<path d="M99 8.64888V11.2441C98.7731 11.2157 98.575 11.2157 98.375 11.2157C95.4539 11.2157 93.6386 12.9743 93.6386 16.2131V23.5823H90.9156V8.78707H93.5251V11.2725C94.4905 9.54235 96.3635 8.64888 99 8.64888Z" fill="#FF931E"/>
<path d="M2.60592 13.0102C2.60592 13.0102 -1.10361 11.6813 0.329051 9.02554C0.719426 8.30055 1.36749 7.74402 2.11362 7.38058C5.23085 5.85676 17.0633 0.736354 36.5282 0C36.5282 0 13.7133 3.20854 3.73474 8.85329C2.27323 9.6805 1.7194 11.5091 2.56553 12.9439C2.58092 12.9666 2.59246 12.9875 2.60592 13.0102Z" fill="#FF931E"/>
</svg>
