<svg width="18" height="18" viewBox="0 0 18 18" fill="none" xmlns="http://www.w3.org/2000/svg">
<g clip-path="url(#clip0_58_2129)">
<path d="M15.9144 0H2.08559C1.70981 0 1.40918 0.300626 1.40918 0.676409V17.3612C1.44676 17.737 1.74738 18 2.08559 18H15.9144C16.2902 18 16.5908 17.6994 16.5908 17.3236V0.676409C16.5908 0.300626 16.2902 0 15.9144 0ZM15.9896 17.3612C15.9896 17.3987 15.952 17.4363 15.9144 17.4363H2.08559C2.04801 17.4363 1.97285 17.3987 1.97285 17.3236V4.43424H15.9896V17.3612ZM16.0271 3.90814H2.01043V0.676409C2.01043 0.638831 2.04801 0.601253 2.08559 0.601253H15.9144C15.952 0.601253 16.0271 0.638831 16.0271 0.713987V3.90814Z" fill="#FD7E14"/>
<path d="M8.99989 6.23779C6.25667 6.23779 4.03955 8.45491 4.03955 11.1981C4.03955 13.9413 6.25667 16.1585 8.99989 16.1585C11.7431 16.1585 13.9602 13.9413 13.9602 11.1981C13.9602 8.45491 11.7431 6.23779 8.99989 6.23779ZM8.99989 15.5948C6.59487 15.5948 4.60323 13.6407 4.60323 11.1981C4.60323 8.79312 6.5573 6.80147 8.99989 6.80147C11.4425 6.80147 13.3965 8.75554 13.3965 11.1981C13.3965 13.6407 11.4049 15.5948 8.99989 15.5948Z" fill="#FD7E14"/>
<path d="M8.99994 8.22949C7.34649 8.22949 6.03125 9.54473 6.03125 11.1982C6.03125 12.8516 7.34649 14.1669 8.99994 14.1669C10.6534 14.1669 11.9686 12.8516 11.9686 11.1982C11.9686 9.54473 10.6534 8.22949 8.99994 8.22949ZM8.99994 13.6032C7.6847 13.6032 6.59492 12.5134 6.59492 11.1982C6.59492 9.88294 7.6847 8.79317 8.99994 8.79317C9.93939 8.79317 10.7661 9.31926 11.1419 10.1084C10.6158 10.2211 10.2024 10.7097 10.2024 11.2733C10.2024 11.7994 10.5782 12.2504 11.0667 12.4007C10.6534 13.1147 9.90181 13.6032 8.99994 13.6032ZM10.8037 11.2733C10.8037 10.9351 11.0667 10.7097 11.3674 10.6721C11.4049 10.86 11.4425 11.0103 11.4425 11.1982C11.4049 11.4612 11.3674 11.6867 11.3298 11.8746C11.0292 11.837 10.8037 11.574 10.8037 11.2733Z" fill="#FD7E14"/>
<path d="M14.5615 1.24023H11.4425C11.0667 1.24023 10.7661 1.54086 10.7661 1.91664V2.40516C10.8037 2.78094 11.0667 3.08157 11.4425 3.08157H14.5615C14.9373 3.08157 15.2379 2.78094 15.2379 2.40516V1.91664C15.2379 1.54086 14.9373 1.24023 14.5615 1.24023ZM14.7118 2.44274C14.7118 2.48032 14.6743 2.55547 14.5991 2.55547H11.4801C11.4425 2.55547 11.3674 2.5179 11.3674 2.44274V1.95422C11.3674 1.91664 11.4049 1.84149 11.4801 1.84149H14.5991C14.6367 1.84149 14.7118 1.87907 14.7118 1.95422V2.44274Z" fill="#FD7E14"/>
<path d="M8.96229 1.01465C8.32346 1.01465 7.79736 1.54074 7.79736 2.17958C7.79736 2.81841 8.32346 3.3445 8.96229 3.3445C9.60112 3.3445 10.1272 2.81841 10.1272 2.17958C10.1272 1.54074 9.60112 1.01465 8.96229 1.01465ZM8.96229 2.81841C8.62409 2.81841 8.36104 2.55536 8.36104 2.21715C8.36104 1.87895 8.62409 1.6159 8.96229 1.6159C9.30049 1.6159 9.56354 1.87895 9.56354 2.21715C9.56354 2.55536 9.30049 2.81841 8.96229 2.81841Z" fill="#FD7E14"/>
</g>
<defs>
<clipPath id="clip0_58_2129">
<rect width="18" height="18" fill="white"/>
</clipPath>
</defs>
</svg>
