<svg width="310" height="207" viewBox="0 0 310 207" fill="none" xmlns="http://www.w3.org/2000/svg">
<path fill-rule="evenodd" clip-rule="evenodd" d="M0 15C8.28427 15 15 8.28427 15 0H140C140 8.28427 146.716 15 155 15C163.284 15 170 8.28427 170 0H294.732C294.732 8.28427 301.448 15 309.732 15C309.821 15 309.911 14.9992 310 14.9977V190.982C309.911 190.98 309.821 190.979 309.732 190.979C301.448 190.979 294.732 197.695 294.732 205.979C294.732 206.322 294.743 206.663 294.766 207H167.966C167.988 206.663 168 206.322 168 205.979C168 197.695 161.284 190.979 153 190.979C144.716 190.979 138 197.695 138 205.979C138 206.322 138.012 206.663 138.034 207H14.9658C14.9885 206.663 15 206.322 15 205.979C15 197.695 8.28427 190.979 0 190.979V15Z" fill="white"/>
</svg>
