<svg width="22" height="22" viewBox="0 0 22 22" fill="none" xmlns="http://www.w3.org/2000/svg">
<g clip-path="url(#clip0_76_2373)">
<path d="M3.6665 16.5002H5.49984V18.3335H16.4998V3.66683H5.49984V5.50016H3.6665V2.75016C3.6665 2.50705 3.76308 2.27389 3.93499 2.10198C4.1069 1.93007 4.34006 1.8335 4.58317 1.8335H17.4165C17.6596 1.8335 17.8928 1.93007 18.0647 2.10198C18.2366 2.27389 18.3332 2.50705 18.3332 2.75016V19.2502C18.3332 19.4933 18.2366 19.7264 18.0647 19.8983C17.8928 20.0703 17.6596 20.1668 17.4165 20.1668H4.58317C4.34006 20.1668 4.1069 20.0703 3.93499 19.8983C3.76308 19.7264 3.6665 19.4933 3.6665 19.2502V16.5002ZM5.49984 10.0835H11.9165V11.9168H5.49984V14.6668L0.916504 11.0002L5.49984 7.3335V10.0835Z" fill="#FD7E14"/>
</g>
<defs>
<clipPath id="clip0_76_2373">
<rect width="22" height="22" fill="white"/>
</clipPath>
</defs>
</svg>
