<svg width="22" height="22" viewBox="0 0 22 22" fill="none" xmlns="http://www.w3.org/2000/svg">
<g clip-path="url(#clip0_30_776)">
<path d="M16.5284 15.2324L20.4545 19.1576L19.1574 20.4547L15.2323 16.5286C13.7718 17.6994 11.9552 18.3362 10.0833 18.3335C5.52934 18.3335 1.83334 14.6375 1.83334 10.0835C1.83334 5.5295 5.52934 1.8335 10.0833 1.8335C14.6373 1.8335 18.3333 5.5295 18.3333 10.0835C18.336 11.9553 17.6992 13.7719 16.5284 15.2324ZM14.6896 14.5522C15.8529 13.3559 16.5026 11.7522 16.5 10.0835C16.5 6.53783 13.6281 3.66683 10.0833 3.66683C6.53768 3.66683 3.66668 6.53783 3.66668 10.0835C3.66668 13.6282 6.53768 16.5002 10.0833 16.5002C11.7521 16.5028 13.3557 15.8531 14.5521 14.6897L14.6896 14.5522Z" fill="#FD7E14"/>
</g>
<defs>
<clipPath id="clip0_30_776">
<rect width="22" height="22" fill="white"/>
</clipPath>
</defs>
</svg>
