<svg width="109" height="34" viewBox="0 0 109 34" fill="none" xmlns="http://www.w3.org/2000/svg">
<path d="M13.4725 23.6601C12.8479 24.1684 12.0053 24.4549 11.1308 24.4549C9.47511 24.4549 8.53927 23.4382 8.53927 21.6266V12.5107H8.54351V9.99913H8.53927V2.44921H5.5412V9.99913H5.52215V12.5086H5.5412V21.7537C5.5412 25.1528 7.44676 27.0268 10.7878 27.0268C12.1302 27.0268 13.5043 26.6456 14.4105 25.8507L13.4725 23.6601Z" fill="#FF931E"/>
<path d="M26.1296 9.84177V12.795C25.8798 12.7627 25.6617 12.7627 25.4436 12.7627C22.2275 12.7627 20.2288 14.7638 20.2288 18.4493V26.835H17.2307V9.99901H20.1039V12.8273C21.1646 10.8585 23.2247 9.84177 26.1296 9.84177Z" fill="#FF931E"/>
<path d="M29.4792 9.999V26.8371H32.4772V9.999H29.4792Z" fill="#FF931E"/>
<path d="M33.0087 6.49213C33.0087 7.63593 32.166 8.52555 30.9782 8.52555C29.8222 8.52555 28.9477 7.66824 28.9477 6.55676C28.9477 5.44527 29.8222 4.55565 30.9782 4.55565C32.1342 4.55565 33.0087 5.41081 33.0087 6.49213Z" fill="#FF931E"/>
<path d="M52.9725 18.4194C52.9725 23.5977 49.4451 27.0291 44.605 27.0291C42.2633 27.0291 40.2032 26.1071 38.8291 24.2977V33.0022H35.831V9.99922H38.7042V12.6681C40.0465 10.7941 42.1701 9.83982 44.605 9.83982C49.4451 9.84197 52.9725 13.2712 52.9725 18.4194ZM49.9448 18.4194C49.9448 14.8609 47.5396 12.5108 44.3552 12.5108C41.2004 12.5108 38.7973 14.8609 38.7973 18.4194C38.7973 22.008 41.2026 24.3602 44.3552 24.3602C47.5396 24.3581 49.9448 22.008 49.9448 18.4194Z" fill="#FF931E"/>
<path d="M72.9364 18.4194C72.9364 23.5977 69.409 27.0291 64.5689 27.0291C62.2271 27.0291 60.167 26.1071 58.7929 24.2977V33.0022H55.7948V9.99922H58.668V12.6681C60.0104 10.7941 62.134 9.83982 64.5689 9.83982C69.4068 9.84197 72.9364 13.2712 72.9364 18.4194ZM69.9065 18.4194C69.9065 14.8609 67.5013 12.5108 64.3169 12.5108C61.1622 12.5108 58.759 14.8609 58.759 18.4194C58.759 22.008 61.1643 24.3602 64.3169 24.3602C67.5034 24.3581 69.9065 22.008 69.9065 18.4194Z" fill="#FF931E"/>
<path d="M75.7566 3.26562H78.7546V26.8373H75.7566V3.26562Z" fill="#FF931E"/>
<path d="M97.2808 17.1485V26.8374H94.2828V17.4974C94.2828 14.1931 92.6588 12.5733 89.8174 12.5733C86.633 12.5733 84.5708 14.5119 84.5708 18.1652V26.8374H81.5727V9.99922H84.4459V12.541C85.6633 10.8264 87.7869 9.83982 90.4103 9.83982C94.4394 9.84197 97.2808 12.192 97.2808 17.1485Z" fill="#FF931E"/>
<path d="M109 9.84177V12.795C108.75 12.7627 108.532 12.7627 108.312 12.7627C105.096 12.7627 103.097 14.7638 103.097 18.4493V26.835H100.099V9.99901H102.972V12.8273C104.035 10.8585 106.097 9.84177 109 9.84177Z" fill="#FF931E"/>
<path d="M2.86915 14.8047C2.86915 14.8047 -1.21508 13.2926 0.362289 10.2705C0.792097 9.44547 1.50562 8.81218 2.32712 8.39861C5.75924 6.6646 18.7869 0.837922 40.218 0C40.218 0 15.0986 3.6511 4.11199 10.0745C2.50286 11.0158 1.89308 13.0966 2.82469 14.7293C2.84162 14.7552 2.85433 14.7789 2.86915 14.8047Z" fill="#FF931E"/>
</svg>
