<svg width="18" height="18" viewBox="0 0 18 18" fill="none" xmlns="http://www.w3.org/2000/svg">
<g clip-path="url(#clip0_58_2082)">
<path d="M3.29583 0.667969C1.84683 0.667969 0.667969 2.21752 0.667969 4.12214C0.667969 5.62331 1.39922 6.93998 2.46797 7.40208L2.22891 16.2359C2.22525 16.3783 2.25014 16.52 2.30211 16.6526C2.35408 16.7852 2.43208 16.9061 2.53151 17.0081C2.63094 17.1101 2.74978 17.1912 2.88104 17.2466C3.01229 17.3019 3.15331 17.3305 3.29576 17.3305C3.43821 17.3305 3.57922 17.3019 3.71048 17.2466C3.84173 17.1912 3.96058 17.1101 4.06001 17.0081C4.15944 16.9061 4.23743 16.7852 4.2894 16.6526C4.34137 16.52 4.36627 16.3783 4.36261 16.2359L4.12355 7.40222C5.1923 6.94012 5.92355 5.62345 5.92355 4.12228C5.92383 2.21752 4.74497 0.667969 3.29583 0.667969ZM3.79448 7.00144C3.7444 7.01826 3.70107 7.05075 3.67088 7.09411C3.64069 7.13746 3.62526 7.18938 3.62686 7.24219L3.87084 16.2498C3.87292 16.3266 3.85959 16.403 3.83163 16.4746C3.80368 16.5462 3.76166 16.6114 3.70807 16.6665C3.65447 16.7216 3.59039 16.7653 3.51959 16.7952C3.4488 16.8251 3.37274 16.8405 3.2959 16.8405C3.21906 16.8405 3.14299 16.8251 3.0722 16.7952C3.00141 16.7653 2.93733 16.7216 2.88373 16.6665C2.83014 16.6114 2.78812 16.5462 2.76016 16.4746C2.7322 16.403 2.71887 16.3266 2.72095 16.2498L2.96494 7.24219C2.96639 7.1895 2.95088 7.13774 2.92071 7.09452C2.89053 7.05131 2.84728 7.01893 2.79731 7.00214C1.83333 6.67828 1.16016 5.49422 1.16016 4.12214C1.16016 2.48906 2.11823 1.16016 3.29583 1.16016C4.47342 1.16016 5.43164 2.48906 5.43164 4.12214C5.43164 5.49422 4.75847 6.67828 3.79448 7.00144Z" fill="#FD7E14"/>
<path d="M9.60852 0.677189C9.45213 0.649355 9.29094 0.678949 9.15464 0.760523C9.01834 0.842098 8.91609 0.970162 8.86672 1.12114C8.16528 3.17652 7.31 6.56009 7.21831 11.0078C7.2174 11.0528 7.22883 11.0972 7.25137 11.1361C7.2739 11.175 7.30668 11.2071 7.34614 11.2287L8.3225 11.7639L8.03717 16.1975C8.02789 16.3402 8.04739 16.4833 8.09452 16.6182C8.14164 16.7532 8.21543 16.8773 8.31149 16.9831C8.40755 17.089 8.52392 17.1745 8.65368 17.2345C8.78344 17.2944 8.92393 17.3277 9.06681 17.3323C9.20969 17.3369 9.35203 17.3127 9.48536 17.2611C9.6187 17.2096 9.74031 17.1318 9.84296 17.0323C9.94561 16.9328 10.0272 16.8137 10.0829 16.682C10.1386 16.5504 10.1672 16.4088 10.1671 16.2659V1.33658C10.1692 1.17777 10.1138 1.02355 10.0112 0.902364C9.90853 0.781178 9.76551 0.701202 9.60852 0.677189ZM9.67503 16.2659C9.67485 16.418 9.61432 16.5639 9.50674 16.6715C9.39915 16.7791 9.25329 16.8396 9.10114 16.8398C9.02268 16.8398 8.94505 16.8237 8.87306 16.7925C8.80107 16.7613 8.73623 16.7157 8.68257 16.6584C8.6289 16.6012 8.58754 16.5336 8.56105 16.4597C8.53455 16.3858 8.52348 16.3073 8.52852 16.229L8.82383 11.6393C8.82686 11.5926 8.81649 11.546 8.79394 11.505C8.7714 11.464 8.73762 11.4302 8.69656 11.4077L7.71402 10.869C7.81991 6.55799 8.65044 3.27945 9.33261 1.28019C9.34589 1.24063 9.37282 1.20708 9.40857 1.18555C9.44432 1.16402 9.48656 1.15591 9.52774 1.16268C9.56892 1.16944 9.60636 1.19064 9.63334 1.22247C9.66032 1.25431 9.6751 1.29471 9.67503 1.33644V16.2659Z" fill="#FD7E14"/>
<path d="M17.0862 0.667969C17.0538 0.66795 17.0218 0.674303 16.992 0.686664C16.9621 0.699025 16.935 0.717151 16.9121 0.740007C16.8892 0.762862 16.8711 0.789999 16.8588 0.819865C16.8464 0.849731 16.84 0.88174 16.8401 0.914063V4.94859C16.8407 5.42495 16.6818 5.88781 16.3887 6.2633C16.0956 6.6388 15.6851 6.9053 15.2229 7.02028C15.1685 7.03385 15.1204 7.06559 15.0865 7.11024C15.0526 7.15489 15.035 7.20978 15.0365 7.26581L15.2798 16.2489C15.2822 16.326 15.2691 16.4028 15.2413 16.4747C15.2135 16.5466 15.1715 16.6122 15.1178 16.6675C15.0642 16.7229 14.9999 16.7669 14.9289 16.797C14.8579 16.827 14.7816 16.8425 14.7045 16.8425C14.6274 16.8425 14.5511 16.827 14.4801 16.797C14.4091 16.7669 14.3449 16.7229 14.2912 16.6675C14.2376 16.6122 14.1956 16.5466 14.1677 16.4747C14.1399 16.4028 14.1268 16.326 14.1292 16.2489L14.3725 7.26581C14.3741 7.20978 14.3565 7.15489 14.3226 7.11024C14.2887 7.06559 14.2406 7.03385 14.1862 7.02028C13.7237 6.90549 13.313 6.63908 13.0197 6.26357C12.7264 5.88806 12.5673 5.4251 12.5679 4.94859V0.914063C12.5679 0.848794 12.5419 0.7862 12.4958 0.740048C12.4496 0.693896 12.387 0.667969 12.3218 0.667969C12.2565 0.667969 12.1939 0.693896 12.1478 0.740048C12.1016 0.7862 12.0757 0.848794 12.0757 0.914063V4.94859C12.075 5.50071 12.2485 6.03898 12.5715 6.48673C12.8946 6.93447 13.3507 7.26888 13.8748 7.4423L13.6368 16.2354C13.6328 16.3781 13.6574 16.5201 13.7092 16.6531C13.761 16.7861 13.839 16.9074 13.9385 17.0097C14.038 17.112 14.157 17.1934 14.2885 17.2489C14.42 17.3045 14.5612 17.3331 14.704 17.3331C14.8467 17.3331 14.988 17.3045 15.1195 17.2489C15.2509 17.1934 15.3699 17.112 15.4694 17.0097C15.5689 16.9074 15.6469 16.7861 15.6987 16.6531C15.7505 16.5201 15.7752 16.3781 15.7712 16.2354L15.5331 7.4423C16.0573 7.26888 16.5134 6.93447 16.8364 6.48673C17.1594 6.03898 17.333 5.50071 17.3322 4.94859V0.914063C17.3323 0.88174 17.3259 0.849731 17.3136 0.819865C17.3012 0.789999 17.2831 0.762862 17.2602 0.740007C17.2374 0.717151 17.2102 0.699025 17.1804 0.686664C17.1505 0.674303 17.1185 0.66795 17.0862 0.667969Z" fill="#FD7E14"/>
<path d="M13.5127 5.05083C13.545 5.05085 13.577 5.04449 13.6069 5.03213C13.6368 5.01977 13.6639 5.00165 13.6868 4.97879C13.7096 4.95594 13.7277 4.9288 13.7401 4.89893C13.7525 4.86907 13.7588 4.83706 13.7588 4.80473V0.914062C13.7588 0.848794 13.7329 0.786199 13.6867 0.740048C13.6406 0.693896 13.578 0.667969 13.5127 0.667969C13.4474 0.667969 13.3848 0.693896 13.3387 0.740048C13.2925 0.786199 13.2666 0.848794 13.2666 0.914062V4.80473C13.2666 4.83706 13.2729 4.86907 13.2853 4.89893C13.2977 4.9288 13.3158 4.95594 13.3386 4.97879C13.3615 5.00165 13.3886 5.01977 13.4185 5.03213C13.4484 5.04449 13.4804 5.05085 13.5127 5.05083Z" fill="#FD7E14"/>
<path d="M14.7036 5.05083C14.7689 5.05083 14.8315 5.0249 14.8776 4.97875C14.9238 4.9326 14.9497 4.87 14.9497 4.80473V0.914062C14.9497 0.848794 14.9238 0.786199 14.8776 0.740048C14.8315 0.693896 14.7689 0.667969 14.7036 0.667969C14.6383 0.667969 14.5758 0.693896 14.5296 0.740048C14.4834 0.786199 14.4575 0.848794 14.4575 0.914062V4.80473C14.4575 4.83706 14.4639 4.86907 14.4762 4.89893C14.4886 4.9288 14.5067 4.95594 14.5296 4.97879C14.5524 5.00165 14.5795 5.01977 14.6094 5.03213C14.6393 5.04449 14.6713 5.05085 14.7036 5.05083Z" fill="#FD7E14"/>
<path d="M15.8945 5.05083C15.9269 5.05085 15.9589 5.04449 15.9887 5.03213C16.0186 5.01977 16.0457 5.00165 16.0686 4.97879C16.0914 4.95594 16.1096 4.9288 16.1219 4.89893C16.1343 4.86907 16.1406 4.83706 16.1406 4.80473V0.914062C16.1406 0.848794 16.1147 0.786199 16.0685 0.740048C16.0224 0.693896 15.9598 0.667969 15.8945 0.667969C15.8293 0.667969 15.7667 0.693896 15.7205 0.740048C15.6744 0.786199 15.6484 0.848794 15.6484 0.914062V4.80473C15.6484 4.87 15.6744 4.9326 15.7205 4.97875C15.7667 5.0249 15.8293 5.05083 15.8945 5.05083Z" fill="#FD7E14"/>
</g>
<defs>
<clipPath id="clip0_58_2082">
<rect width="18" height="18" fill="white"/>
</clipPath>
</defs>
</svg>
