<svg width="18" height="18" viewBox="0 0 18 18" fill="none" xmlns="http://www.w3.org/2000/svg">
<g clip-path="url(#clip0_58_2116)">
<path d="M14.6487 0C13.1106 0 11.8635 1.24711 11.8635 2.78522V4.26097H5.25376V2.78522C5.25376 1.66282 6.16831 0.748268 7.29071 0.748268C8.41311 0.748268 9.32766 1.66282 9.32766 2.78522C9.32766 2.99307 9.49394 3.15935 9.70179 3.15935C9.90965 3.15935 10.0759 2.99307 10.0759 2.78522C10.0759 1.24711 8.82881 0 7.29071 0C5.7526 0 4.50549 1.24711 4.50549 2.78522V12.2425C4.4847 12.4503 4.67177 12.6374 4.87962 12.6374C5.08748 12.6374 5.25376 12.4711 5.25376 12.2633V11.3279H11.8842V12.2633C11.8842 12.4711 12.0505 12.6374 12.2584 12.6374C12.4662 12.6374 12.6325 12.4711 12.6325 12.2633V2.78522C12.6325 1.66282 13.5471 0.748268 14.6695 0.748268C15.7919 0.748268 16.6856 1.66282 16.6856 2.78522C16.6856 2.99307 16.8519 3.15935 17.0598 3.15935C17.2676 3.15935 17.4339 2.99307 17.4339 2.78522C17.4339 1.24711 16.1868 0 14.6487 0ZM11.8842 10.5381H5.25376V9.20785H11.8842V10.5381ZM11.8842 8.45958H5.25376V7.12933H11.8842V8.45958ZM11.8842 6.33949H5.25376V5.00924H11.8842V6.33949Z" fill="#FD7E14"/>
<path d="M16.4986 14.0924C16.4154 13.9053 16.1868 13.8014 15.9997 13.9053C14.129 14.7159 13.2145 14.321 12.2376 13.9053C11.2399 13.4896 10.2214 13.0531 8.41311 13.9053C6.54244 14.7159 5.62789 14.321 4.65099 13.9053C3.6533 13.4896 2.61403 13.0531 0.805721 13.9053C0.618654 13.9885 0.535513 14.2171 0.618654 14.4042C0.701795 14.5912 0.930432 14.6744 1.1175 14.5912C2.63482 13.8845 3.42466 14.2171 4.33921 14.612C4.94198 14.8614 5.58632 15.1316 6.43852 15.1316C7.06207 15.1316 7.78955 14.9861 8.7041 14.5912C10.2214 13.8845 11.0113 14.2171 11.9258 14.612C12.5286 14.8614 13.1729 15.1316 14.0251 15.1316C14.6487 15.1316 15.3762 14.9861 16.2907 14.5912C16.4778 14.5081 16.5817 14.2794 16.4986 14.0924Z" fill="#FD7E14"/>
<path d="M16.4781 16.9605C16.3949 16.7735 16.1663 16.6696 15.9792 16.7735C14.1085 17.5841 13.194 17.1892 12.2171 16.7735C11.2194 16.3578 10.2009 15.9213 8.3926 16.7735C6.52193 17.5841 5.60738 17.1892 4.63048 16.7735C3.63279 16.3578 2.61431 15.9213 0.785213 16.7735C0.598146 16.8566 0.515005 17.0853 0.598146 17.2723C0.702072 17.4594 0.930709 17.5425 1.11778 17.4594C2.6351 16.7527 3.42494 17.0853 4.33949 17.4802C4.94226 17.7296 5.5866 17.9998 6.43879 17.9998C7.06235 17.9998 7.78983 17.8543 8.70438 17.4594C10.2217 16.7527 11.0115 17.0853 11.9261 17.4802C12.5289 17.7296 13.1732 17.9998 14.0254 17.9998C14.649 17.9998 15.3764 17.8543 16.291 17.4594C16.4781 17.3762 16.582 17.1476 16.4781 16.9605Z" fill="#FD7E14"/>
</g>
<defs>
<clipPath id="clip0_58_2116">
<rect width="18" height="18" fill="white"/>
</clipPath>
</defs>
</svg>
