<svg width="16" height="16" viewBox="0 0 16 16" fill="none" xmlns="http://www.w3.org/2000/svg">
<g clip-path="url(#clip0_37_1124)">
<path d="M7.99992 7.3335C8.88397 7.3335 9.73182 7.68469 10.3569 8.30981C10.9821 8.93493 11.3333 9.78277 11.3333 10.6668V14.6668H4.66659V10.6668C4.66659 9.78277 5.01777 8.93493 5.6429 8.30981C6.26802 7.68469 7.11586 7.3335 7.99992 7.3335ZM3.52525 9.3375C3.41916 9.69535 3.35648 10.0647 3.33859 10.4375L3.33325 10.6668V14.6668H1.33325V11.6668C1.33312 11.0919 1.54527 10.5371 1.92901 10.109C2.31275 9.68082 2.84105 9.40942 3.41259 9.34683L3.52592 9.3375H3.52525ZM12.4746 9.3375C13.0679 9.37366 13.625 9.6348 14.0323 10.0677C14.4397 10.5005 14.6665 11.0725 14.6666 11.6668V14.6668H12.6666V10.6668C12.6666 10.2048 12.5999 9.75883 12.4746 9.3375ZM3.66659 5.3335C4.10861 5.3335 4.53254 5.50909 4.8451 5.82165C5.15766 6.13421 5.33325 6.55814 5.33325 7.00016C5.33325 7.44219 5.15766 7.86611 4.8451 8.17867C4.53254 8.49123 4.10861 8.66683 3.66659 8.66683C3.22456 8.66683 2.80063 8.49123 2.48807 8.17867C2.17551 7.86611 1.99992 7.44219 1.99992 7.00016C1.99992 6.55814 2.17551 6.13421 2.48807 5.82165C2.80063 5.50909 3.22456 5.3335 3.66659 5.3335ZM12.3333 5.3335C12.7753 5.3335 13.1992 5.50909 13.5118 5.82165C13.8243 6.13421 13.9999 6.55814 13.9999 7.00016C13.9999 7.44219 13.8243 7.86611 13.5118 8.17867C13.1992 8.49123 12.7753 8.66683 12.3333 8.66683C11.8912 8.66683 11.4673 8.49123 11.1547 8.17867C10.8422 7.86611 10.6666 7.44219 10.6666 7.00016C10.6666 6.55814 10.8422 6.13421 11.1547 5.82165C11.4673 5.50909 11.8912 5.3335 12.3333 5.3335ZM7.99992 1.3335C8.70716 1.3335 9.38544 1.61445 9.88554 2.11454C10.3856 2.61464 10.6666 3.29292 10.6666 4.00016C10.6666 4.70741 10.3856 5.38568 9.88554 5.88578C9.38544 6.38588 8.70716 6.66683 7.99992 6.66683C7.29268 6.66683 6.6144 6.38588 6.1143 5.88578C5.6142 5.38568 5.33325 4.70741 5.33325 4.00016C5.33325 3.29292 5.6142 2.61464 6.1143 2.11454C6.6144 1.61445 7.29268 1.3335 7.99992 1.3335Z" fill="white"/>
</g>
<defs>
<clipPath id="clip0_37_1124">
<rect width="16" height="16" fill="white"/>
</clipPath>
</defs>
</svg>
