<svg width="109" height="34" viewBox="0 0 109 34" fill="none" xmlns="http://www.w3.org/2000/svg">
<path d="M13.4724 23.6601C12.8478 24.1685 12.0051 24.455 11.1307 24.455C9.47495 24.455 8.53911 23.4383 8.53911 21.6267V12.5108H8.54334V9.99915H8.53911V2.44922H5.54103V9.99915H5.52197V12.5086H5.54103V21.7538C5.54103 25.1529 7.44659 27.0269 10.7877 27.0269C12.13 27.0269 13.5041 26.6456 14.4103 25.8508L13.4724 23.6601Z" fill="white"/>
<path d="M26.1299 9.8418V12.795C25.8801 12.7627 25.662 12.7627 25.4439 12.7627C22.2278 12.7627 20.229 14.7638 20.229 18.4494V26.8351H17.231V9.99904H20.1041V12.8273C21.1649 10.8585 23.225 9.8418 26.1299 9.8418Z" fill="white"/>
<path d="M29.4795 9.99902V26.8372H32.4776V9.99902H29.4795Z" fill="white"/>
<path d="M33.0087 6.49215C33.0087 7.63595 32.166 8.52557 30.9782 8.52557C29.8222 8.52557 28.9478 7.66826 28.9478 6.55677C28.9478 5.44529 29.8222 4.55566 30.9782 4.55566C32.1343 4.55566 33.0087 5.41082 33.0087 6.49215Z" fill="white"/>
<path d="M52.9726 18.4194C52.9726 23.5977 49.4452 27.0291 44.6051 27.0291C42.2634 27.0291 40.2033 26.1072 38.8291 24.2978V33.0023H35.8311V9.99924H38.7042V12.6681C40.0466 10.7941 42.1702 9.83984 44.6051 9.83984C49.4452 9.842 52.9726 13.2712 52.9726 18.4194ZM49.9449 18.4194C49.9449 14.8609 47.5396 12.5109 44.3552 12.5109C41.2005 12.5109 38.7974 14.8609 38.7974 18.4194C38.7974 22.0081 41.2026 24.3603 44.3552 24.3603C47.5396 24.3581 49.9449 22.0081 49.9449 18.4194Z" fill="white"/>
<path d="M72.9365 18.4194C72.9365 23.5977 69.4091 27.0291 64.569 27.0291C62.2272 27.0291 60.1671 26.1072 58.793 24.2978V33.0023H55.7949V9.99924H58.6681V12.6681C60.0104 10.7941 62.1341 9.83984 64.569 9.83984C69.407 9.842 72.9365 13.2712 72.9365 18.4194ZM69.9066 18.4194C69.9066 14.8609 67.5014 12.5109 64.317 12.5109C61.1622 12.5109 58.7591 14.8609 58.7591 18.4194C58.7591 22.0081 61.1644 24.3603 64.317 24.3603C67.5035 24.3581 69.9066 22.0081 69.9066 18.4194Z" fill="white"/>
<path d="M75.7568 3.26562H78.7549V26.8374H75.7568V3.26562Z" fill="white"/>
<path d="M97.2809 17.1485V26.8374H94.2828V17.4975C94.2828 14.1932 92.6589 12.5733 89.8175 12.5733C86.6331 12.5733 84.5708 14.512 84.5708 18.1652V26.8374H81.5728V9.99924H84.4459V12.541C85.6634 10.8264 87.787 9.83984 90.4103 9.83984C94.4395 9.842 97.2809 12.1921 97.2809 17.1485Z" fill="white"/>
<path d="M109 9.8418V12.795C108.75 12.7627 108.532 12.7627 108.312 12.7627C105.096 12.7627 103.097 14.7638 103.097 18.4494V26.8351H100.099V9.99904H102.972V12.8273C104.035 10.8585 106.097 9.8418 109 9.8418Z" fill="white"/>
<path d="M2.86916 14.8048C2.86916 14.8048 -1.21509 13.2926 0.36229 10.2705C0.792099 9.4455 1.50562 8.81221 2.32713 8.39863C5.75925 6.66462 18.7869 0.837924 40.2181 0C40.2181 0 15.0986 3.65111 4.112 10.0745C2.50287 11.0158 1.89309 13.0966 2.82469 14.7294C2.84163 14.7552 2.85434 14.7789 2.86916 14.8048Z" fill="white"/>
</svg>
