<svg width="22" height="22" viewBox="0 0 22 22" fill="none" xmlns="http://www.w3.org/2000/svg">
<g clip-path="url(#clip0_76_2350)">
<path d="M11.0002 20.1668C5.93741 20.1668 1.8335 16.0629 1.8335 11.0002C1.8335 5.93741 5.93741 1.8335 11.0002 1.8335C16.0629 1.8335 20.1668 5.93741 20.1668 11.0002C20.1668 16.0629 16.0629 20.1668 11.0002 20.1668ZM11.0002 18.3335C12.9451 18.3335 14.8103 17.5609 16.1856 16.1856C17.5609 14.8103 18.3335 12.9451 18.3335 11.0002C18.3335 9.05524 17.5609 7.18998 16.1856 5.81471C14.8103 4.43945 12.9451 3.66683 11.0002 3.66683C9.05524 3.66683 7.18998 4.43945 5.81471 5.81471C4.43945 7.18998 3.66683 9.05524 3.66683 11.0002C3.66683 12.9451 4.43945 14.8103 5.81471 16.1856C7.18998 17.5609 9.05524 18.3335 11.0002 18.3335ZM10.0835 13.7502H11.9168V15.5835H10.0835V13.7502ZM11.9168 12.2422V12.8335H10.0835V11.4585C10.0835 11.2154 10.1801 10.9822 10.352 10.8103C10.5239 10.6384 10.757 10.5418 11.0002 10.5418C11.2606 10.5418 11.5156 10.4678 11.7356 10.3285C11.9556 10.1892 12.1316 9.99033 12.243 9.75495C12.3543 9.51956 12.3966 9.25739 12.3648 8.99894C12.333 8.74048 12.2285 8.49637 12.0633 8.295C11.8982 8.09363 11.6793 7.94329 11.4321 7.86147C11.1849 7.77965 10.9195 7.76971 10.6669 7.83281C10.4142 7.89591 10.1847 8.02946 10.005 8.21791C9.82529 8.40636 9.70279 8.64198 9.65175 8.89733L7.85325 8.53708C7.96474 7.97982 8.22221 7.46217 8.59934 7.03703C8.97647 6.6119 9.45972 6.29453 9.9997 6.11737C10.5397 5.94022 11.117 5.90962 11.6727 6.02873C12.2284 6.14783 12.7425 6.41235 13.1624 6.79525C13.5824 7.17815 13.8931 7.6657 14.0628 8.20805C14.2326 8.75041 14.2553 9.32811 14.1286 9.88211C14.0019 10.4361 13.7304 10.9465 13.3418 11.3612C12.9532 11.7759 12.4615 12.0799 11.9168 12.2422Z" fill="#FD7E14"/>
</g>
<defs>
<clipPath id="clip0_76_2350">
<rect width="22" height="22" fill="white"/>
</clipPath>
</defs>
</svg>
