<svg width="14" height="12" viewBox="0 0 14 12" fill="none" xmlns="http://www.w3.org/2000/svg">
<path d="M13.6666 5.33317V11.3332H12.3333V9.33317H1.66659V11.3332H0.333252V0.666504H1.66659V7.33317H6.99992V2.6665H10.9999C11.7072 2.6665 12.3854 2.94746 12.8855 3.44755C13.3856 3.94765 13.6666 4.62593 13.6666 5.33317ZM12.3333 7.33317V5.33317C12.3333 4.97955 12.1928 4.64041 11.9427 4.39036C11.6927 4.14031 11.3535 3.99984 10.9999 3.99984H8.33325V7.33317H12.3333ZM4.33325 5.33317C4.51006 5.33317 4.67963 5.26293 4.80466 5.13791C4.92968 5.01288 4.99992 4.84331 4.99992 4.6665C4.99992 4.48969 4.92968 4.32012 4.80466 4.1951C4.67963 4.07008 4.51006 3.99984 4.33325 3.99984C4.15644 3.99984 3.98687 4.07008 3.86185 4.1951C3.73682 4.32012 3.66659 4.48969 3.66659 4.6665C3.66659 4.84331 3.73682 5.01288 3.86185 5.13791C3.98687 5.26293 4.15644 5.33317 4.33325 5.33317ZM4.33325 6.6665C3.80282 6.6665 3.29411 6.45579 2.91904 6.08072C2.54397 5.70564 2.33325 5.19694 2.33325 4.6665C2.33325 4.13607 2.54397 3.62736 2.91904 3.25229C3.29411 2.87722 3.80282 2.6665 4.33325 2.6665C4.86369 2.6665 5.37239 2.87722 5.74747 3.25229C6.12254 3.62736 6.33325 4.13607 6.33325 4.6665C6.33325 5.19694 6.12254 5.70564 5.74747 6.08072C5.37239 6.45579 4.86369 6.6665 4.33325 6.6665Z" fill="#FD7E14"/>
</svg>
