<svg width="16" height="16" viewBox="0 0 16 16" fill="none" xmlns="http://www.w3.org/2000/svg">
<g clip-path="url(#clip0_186_2228)">
<path d="M14.6666 7.33317V13.3332H13.3333V11.3332H2.66659V13.3332H1.33325V2.6665H2.66659V9.33317H7.99992V4.6665H11.9999C12.7072 4.6665 13.3854 4.94746 13.8855 5.44755C14.3856 5.94765 14.6666 6.62593 14.6666 7.33317ZM13.3333 9.33317V7.33317C13.3333 6.97955 13.1928 6.64041 12.9427 6.39036C12.6927 6.14031 12.3535 5.99984 11.9999 5.99984H9.33325V9.33317H13.3333ZM5.33325 7.33317C5.51006 7.33317 5.67963 7.26293 5.80466 7.13791C5.92968 7.01288 5.99992 6.84331 5.99992 6.6665C5.99992 6.48969 5.92968 6.32012 5.80466 6.1951C5.67963 6.07008 5.51006 5.99984 5.33325 5.99984C5.15644 5.99984 4.98687 6.07008 4.86185 6.1951C4.73682 6.32012 4.66659 6.48969 4.66659 6.6665C4.66659 6.84331 4.73682 7.01288 4.86185 7.13791C4.98687 7.26293 5.15644 7.33317 5.33325 7.33317ZM5.33325 8.6665C4.80282 8.6665 4.29411 8.45579 3.91904 8.08072C3.54397 7.70564 3.33325 7.19694 3.33325 6.6665C3.33325 6.13607 3.54397 5.62736 3.91904 5.25229C4.29411 4.87722 4.80282 4.6665 5.33325 4.6665C5.86369 4.6665 6.37239 4.87722 6.74747 5.25229C7.12254 5.62736 7.33325 6.13607 7.33325 6.6665C7.33325 7.19694 7.12254 7.70564 6.74747 8.08072C6.37239 8.45579 5.86369 8.6665 5.33325 8.6665Z" fill="#FD7E14"/>
</g>
<defs>
<clipPath id="clip0_186_2228">
<rect width="16" height="16" fill="white"/>
</clipPath>
</defs>
</svg>
