<svg width="20" height="20" viewBox="0 0 20 20" fill="none" xmlns="http://www.w3.org/2000/svg">
<path d="M14.3371 12.9428C14.3463 11.6869 13.8499 10.6937 12.8596 9.99225C12.0948 9.4522 11.1667 9.1705 10.269 8.8998C8.39894 8.33287 7.85646 8.03426 7.85646 7.13997C7.85646 6.14384 9.15102 5.78941 10.2593 5.78941C11.0663 5.78941 11.9949 6.04036 12.5716 6.41225L13.7148 4.64166C12.9612 4.15307 11.9297 3.81981 10.9111 3.71637V2.06299H8.80216V3.83231C6.92748 4.24471 5.74652 5.46997 5.74652 7.13997C5.74652 8.30955 6.23253 9.23708 7.1883 9.89129C7.91523 10.3907 8.80179 10.6589 9.65819 10.9186C11.4925 11.473 12.2373 11.8108 12.2289 12.9297L12.2288 12.9379C12.2288 13.877 10.9843 14.2109 9.91812 14.2109C8.91099 14.2109 7.81577 13.7695 7.19495 13.1132L5.66284 14.5624C6.44905 15.394 7.59133 15.9819 8.80211 16.2123V17.9373H10.9111V16.2494C12.9943 15.9513 14.335 14.6971 14.3371 12.9428Z" fill="#FD7E14"/>
</svg>
