<svg width="22" height="22" viewBox="0 0 22 22" fill="none" xmlns="http://www.w3.org/2000/svg">
<path d="M9.14392 8.2272C9.59258 7.77849 9.89811 7.20682 10.0219 6.58448C10.1456 5.96213 10.0821 5.31706 9.83925 4.73083C9.59641 4.1446 9.18519 3.64355 8.65759 3.29103C8.12999 2.93851 7.5097 2.75035 6.87517 2.75035C6.24063 2.75035 5.62035 2.93851 5.09275 3.29103C4.56514 3.64355 4.15392 4.1446 3.91108 4.73083C3.66824 5.31706 3.60469 5.96213 3.72846 6.58448C3.85222 7.20682 4.15775 7.77849 4.60642 8.2272L6.87517 10.496L9.14392 8.2272ZM6.87517 13.0883L3.30933 9.52428C2.60448 8.8191 2.12454 7.92076 1.9302 6.94283C1.73586 5.96491 1.83584 4.95132 2.2175 4.03021C2.59916 3.10911 3.24536 2.32185 4.07441 1.76797C4.90346 1.21409 5.87812 0.918457 6.87517 0.918457C7.87221 0.918457 8.84687 1.21409 9.67592 1.76797C10.505 2.32185 11.1512 3.10911 11.5328 4.03021C11.9145 4.95132 12.0145 5.96491 11.8201 6.94283C11.6258 7.92076 11.1459 8.8191 10.441 9.52428L6.87517 13.0901V13.0883ZM6.87517 7.33345C6.51049 7.33345 6.16076 7.18859 5.90289 6.93072C5.64503 6.67286 5.50017 6.32312 5.50017 5.95845C5.50017 5.59378 5.64503 5.24404 5.90289 4.98618C6.16076 4.72832 6.51049 4.58345 6.87517 4.58345C7.23984 4.58345 7.58957 4.72832 7.84744 4.98618C8.1053 5.24404 8.25017 5.59378 8.25017 5.95845C8.25017 6.32312 8.1053 6.67286 7.84744 6.93072C7.58957 7.18859 7.23984 7.33345 6.87517 7.33345V7.33345ZM15.1252 18.746L17.3939 16.4772C17.8426 16.0285 18.1481 15.4568 18.2719 14.8345C18.3956 14.2121 18.3321 13.5671 18.0892 12.9808C17.8464 12.3946 17.4352 11.8935 16.9076 11.541C16.38 11.1885 15.7597 11.0003 15.1252 11.0003C14.4906 11.0003 13.8703 11.1885 13.3427 11.541C12.8151 11.8935 12.4039 12.3946 12.1611 12.9808C11.9182 13.5671 11.8547 14.2121 11.9785 14.8345C12.1022 15.4568 12.4078 16.0285 12.8564 16.4772L15.1252 18.746ZM18.691 17.7743L15.1252 21.3383L11.5593 17.7734C10.8545 17.0682 10.3745 16.1698 10.1802 15.1919C9.98586 14.214 10.0858 13.2004 10.4675 12.2793C10.8492 11.3582 11.4954 10.5709 12.3244 10.0171C13.1535 9.46317 14.1281 9.16754 15.1252 9.16754C16.1222 9.16754 17.0969 9.46317 17.9259 10.0171C18.755 10.5709 19.4012 11.3582 19.7828 12.2793C20.1645 13.2004 20.2645 14.214 20.0701 15.1919C19.8758 16.1698 19.3959 17.0682 18.691 17.7734V17.7743ZM15.1252 15.5835C14.7605 15.5835 14.4108 15.4386 14.1529 15.1807C13.895 14.9229 13.7502 14.5731 13.7502 14.2085C13.7502 13.8438 13.895 13.494 14.1529 13.2362C14.4108 12.9783 14.7605 12.8335 15.1252 12.8335C15.4898 12.8335 15.8396 12.9783 16.0974 13.2362C16.3553 13.494 16.5002 13.8438 16.5002 14.2085C16.5002 14.5731 16.3553 14.9229 16.0974 15.1807C15.8396 15.4386 15.4898 15.5835 15.1252 15.5835V15.5835Z" fill="#FD7E14"/>
</svg>
