<svg width="20" height="20" viewBox="0 0 20 20" fill="none" xmlns="http://www.w3.org/2000/svg">
<path d="M10.0002 19.1668C4.93741 19.1668 0.833496 15.0629 0.833496 10.0002C0.833496 4.93741 4.93741 0.833496 10.0002 0.833496C15.0629 0.833496 19.1668 4.93741 19.1668 10.0002C19.1668 15.0629 15.0629 19.1668 10.0002 19.1668ZM10.0002 17.3335C11.9451 17.3335 13.8103 16.5609 15.1856 15.1856C16.5609 13.8103 17.3335 11.9451 17.3335 10.0002C17.3335 8.05524 16.5609 6.18998 15.1856 4.81471C13.8103 3.43945 11.9451 2.66683 10.0002 2.66683C8.05524 2.66683 6.18998 3.43945 4.81471 4.81471C3.43945 6.18998 2.66683 8.05524 2.66683 10.0002C2.66683 11.9451 3.43945 13.8103 4.81471 15.1856C6.18998 16.5609 8.05524 17.3335 10.0002 17.3335V17.3335ZM9.0835 12.7502H10.9168V14.5835H9.0835V12.7502ZM10.9168 11.2422V11.8335H9.0835V10.4585C9.0835 10.2154 9.18007 9.98222 9.35198 9.81031C9.52389 9.63841 9.75705 9.54183 10.0002 9.54183C10.2606 9.54181 10.5156 9.46785 10.7356 9.32855C10.9556 9.18924 11.1316 8.99033 11.243 8.75495C11.3543 8.51956 11.3966 8.25739 11.3648 7.99894C11.333 7.74048 11.2285 7.49636 11.0633 7.295C10.8982 7.09363 10.6793 6.94329 10.4321 6.86147C10.1849 6.77965 9.91953 6.76971 9.66689 6.83281C9.41424 6.89591 9.18471 7.02946 9.005 7.21791C8.82529 7.40636 8.70279 7.64198 8.65175 7.89733L6.85325 7.53708C6.96474 6.97982 7.22221 6.46217 7.59934 6.03703C7.97647 5.6119 8.45972 5.29453 8.9997 5.11737C9.53968 4.94022 10.117 4.90962 10.6727 5.02873C11.2284 5.14783 11.7425 5.41235 12.1624 5.79525C12.5824 6.17815 12.8931 6.6657 13.0628 7.20805C13.2326 7.75041 13.2553 8.32811 13.1286 8.88211C13.0019 9.43611 12.7304 9.94653 12.3418 10.3612C11.9532 10.7759 11.4615 11.0799 10.9168 11.2422V11.2422Z" fill="#FD7E14"/>
</svg>
