<svg width="22" height="22" viewBox="0 0 22 22" fill="none" xmlns="http://www.w3.org/2000/svg">
<path d="M11.0002 20.1668C5.93741 20.1668 1.8335 16.0629 1.8335 11.0002C1.8335 5.93741 5.93741 1.8335 11.0002 1.8335C16.0629 1.8335 20.1668 5.93741 20.1668 11.0002C20.1668 16.0629 16.0629 20.1668 11.0002 20.1668ZM11.0002 18.3335C12.9451 18.3335 14.8103 17.5609 16.1856 16.1856C17.5609 14.8103 18.3335 12.9451 18.3335 11.0002C18.3335 9.05524 17.5609 7.18998 16.1856 5.81471C14.8103 4.43945 12.9451 3.66683 11.0002 3.66683C9.05524 3.66683 7.18998 4.43945 5.81471 5.81471C4.43945 7.18998 3.66683 9.05524 3.66683 11.0002C3.66683 12.9451 4.43945 14.8103 5.81471 16.1856C7.18998 17.5609 9.05524 18.3335 11.0002 18.3335V18.3335ZM7.79183 12.8335H12.8335C12.9551 12.8335 13.0716 12.7852 13.1576 12.6993C13.2435 12.6133 13.2918 12.4967 13.2918 12.3752C13.2918 12.2536 13.2435 12.137 13.1576 12.0511C13.0716 11.9651 12.9551 11.9168 12.8335 11.9168H9.16683C8.55904 11.9168 7.97615 11.6754 7.54638 11.2456C7.11661 10.8158 6.87516 10.233 6.87516 9.62516C6.87516 9.01737 7.11661 8.43448 7.54638 8.00471C7.97615 7.57494 8.55904 7.3335 9.16683 7.3335H10.0835V5.50016H11.9168V7.3335H14.2085V9.16683H9.16683C9.04527 9.16683 8.92869 9.21512 8.84274 9.30107C8.75678 9.38703 8.7085 9.5036 8.7085 9.62516C8.7085 9.74672 8.75678 9.8633 8.84274 9.94925C8.92869 10.0352 9.04527 10.0835 9.16683 10.0835H12.8335C13.4413 10.0835 14.0242 10.3249 14.4539 10.7547C14.8837 11.1845 15.1252 11.7674 15.1252 12.3752C15.1252 12.983 14.8837 13.5658 14.4539 13.9956C14.0242 14.4254 13.4413 14.6668 12.8335 14.6668H11.9168V16.5002H10.0835V14.6668H7.79183V12.8335Z" fill="#FD7E14"/>
</svg>
