<svg width="22" height="22" viewBox="0 0 22 22" fill="none" xmlns="http://www.w3.org/2000/svg">
<path d="M3.46775 2.59034L11 0.916504L18.5322 2.59034C18.7358 2.63559 18.9179 2.74889 19.0483 2.91154C19.1788 3.07419 19.25 3.27648 19.25 3.485V12.6398C19.2499 13.5452 19.0263 14.4366 18.5991 15.2348C18.1718 16.0331 17.554 16.7135 16.8007 17.2158L11 21.0832L5.19933 17.2158C4.44608 16.7136 3.82842 16.0333 3.40115 15.2353C2.97388 14.4372 2.75022 13.5459 2.75 12.6407V3.485C2.75004 3.27648 2.82117 3.07419 2.95166 2.91154C3.08215 2.74889 3.26419 2.63559 3.46775 2.59034V2.59034ZM4.58333 4.22017V12.6398C4.58334 13.2433 4.73236 13.8376 5.01716 14.3698C5.30195 14.9019 5.71372 15.3556 6.21592 15.6904L11 18.8804L15.7841 15.6904C16.2862 15.3557 16.6978 14.9022 16.9826 14.3702C17.2674 13.8382 17.4165 13.2441 17.4167 12.6407V4.22017L11 2.79567L4.58333 4.22017ZM11.9167 9.1665H14.6667L10.0833 15.5832V10.9998H7.33333L11.9167 4.58317V9.1665Z" fill="#FD7E14"/>
</svg>
